<?xml version="1.0" encoding="utf-8"?>
<!-- Generator: Adobe Illustrator 18.0.0, SVG Export Plug-In . SVG Version: 6.00 Build 0)  -->
<!DOCTYPE svg PUBLIC "-//W3C//DTD SVG 1.1//EN" "http://www.w3.org/Graphics/SVG/1.1/DTD/svg11.dtd">

<svg version="1.1" id="Layer_1" xmlns="http://www.w3.org/2000/svg" xmlns:xlink="http://www.w3.org/1999/xlink" x="0px" y="0px"
	 width="84px" height="40px" viewBox="0 0 84 40" enable-background="new 0 0 84 40" xml:space="preserve">
<g>
	<path fill="#FFFFFF" d="M0,8.3h5.7l5.6,16.2l5.6-16.2h5.7l-8,23.3H8L0,8.3z"/>
	<path fill="#FFFFFF" d="M22.2,31.7V8.3h8.5c3.8,0,6.9,1.3,9.1,3.4c2.2,2.1,3.3,5,3.3,8.2c0,1.9-0.4,3.9-1.3,5.6s-2.2,3.3-4,4.4
		c-1.8,1.1-4.1,1.8-6.8,1.8H22.2z M27.6,13.4v13.1h2.3c2.8,0,4.8-1,6.1-2.2c1.3-1.3,1.8-2.9,1.8-4.4c0-1.6-0.8-3.3-2.2-4.5
		c-1.4-1.2-3.4-2.1-6-2.1H27.6z"/>
	<path fill="#FFFFFF" d="M58.1,27.5h-9.5l-1.4,4.2h-5.7l8-23.3h7.9l8,23.3h-5.8L58.1,27.5z M50.3,22.4h6l-3-8.8L50.3,22.4z"/>
	<path fill="#FFFFFF" d="M64.8,31.7V8.3h6.9c1.4,0,2.9,0.1,4.2,0.4c1.4,0.4,2.6,0.9,3.5,1.8c0.9,0.9,1.5,2.2,1.5,3.9
		c0,1.2-0.3,2.2-0.8,3c-0.5,0.8-1.1,1.4-1.8,1.9c2.4,1,3.6,2.7,3.6,5.5c0,2.1-0.7,3.6-1.8,4.5c-1.1,1-2.7,1.6-4.5,1.9
		c-1.8,0.3-3.9,0.4-6,0.4H64.8z M70.2,12.2v5.4c2.1,0,3.4,0,4.4-0.4c0.9-0.3,1.3-1,1.3-2.2c0-1.3-0.4-2-1.3-2.4
		C73.7,12.2,72.3,12.2,70.2,12.2L70.2,12.2z M70.2,22v5.9c2.2,0,3.9-0.1,5.1-0.4C76.4,27,77,26.3,77,25c0-1.3-0.5-2.1-1.6-2.5
		c-1-0.4-2.6-0.5-4.5-0.5H70.2z"/>
</g>
<rect x="22.8" y="36.7" fill="#FFFFFF" width="40.3" height="3.3"/>
<rect x="22.8" y="0" fill="#FFFFFF" width="40.3" height="3.3"/>
</svg>
