<svg width="130" height="40" viewBox="0 0 130 40" fill="none" xmlns="http://www.w3.org/2000/svg">
<path fill-rule="evenodd" clip-rule="evenodd" d="M19.7184 0H0V38.8889H31.7699L19.7184 0Z" fill="white"/>
<path d="M49.0078 25.1562H46.8672L43.2656 14.7031H45.2031L47.9375 22.6406L50.6719 14.7031H52.6094L49.0078 25.1562ZM55.4531 13.6875H55.6875V25H53.8594V13.8438L55.4531 13.6875ZM64.6797 23.625L63.8516 25.1562C63.2578 25.1562 62.6328 24.9688 62.0312 24.3047C61.7109 24.5469 61.4297 24.7578 61.0938 24.9062C60.75 25.0625 60.3672 25.1562 59.8438 25.1562C59.2812 25.1562 58.6172 25.0469 58.0938 24.6719C57.5625 24.2969 57.1719 23.6562 57.1719 22.5703C57.1719 21.8594 57.3438 21.2891 57.7812 20.9062C58.2188 20.5234 58.9297 20.3125 60.0156 20.3125C60.4531 20.3125 60.9609 20.3125 61.6797 20.375V19.9688C61.6797 19.4062 61.5 19.0156 61.2109 18.7812C60.9219 18.5469 60.5312 18.4531 60.0938 18.4531C59.3984 18.4531 58.5781 18.7031 57.9219 19.0078L57.4922 17.4141C58.3438 17.0078 59.4297 16.7266 60.4531 16.7266C61.2578 16.7266 62.0078 16.8984 62.5703 17.3203C63.125 17.7422 63.4766 18.4062 63.4766 19.3984V22.4141C63.4766 22.7969 63.6016 23.0625 63.8203 23.25C64.0312 23.4375 64.3281 23.5547 64.6797 23.625ZM61.6719 22.2109V21.7188C60.8203 21.7188 60.1562 21.7031 59.7031 21.8125C59.25 21.9219 59 22.1562 59 22.6328C59 23.2969 59.4766 23.6641 60.1406 23.6641C60.3672 23.6641 60.75 23.6172 61.0781 23.4141C61.4062 23.2109 61.6719 22.8438 61.6719 22.2109ZM72.7422 23.625L71.9141 25.1562C71.3203 25.1562 70.6953 24.9688 70.0938 24.3047C69.7734 24.5469 69.4922 24.7578 69.1562 24.9062C68.8125 25.0625 68.4297 25.1562 67.9062 25.1562C67.3438 25.1562 66.6797 25.0469 66.1562 24.6719C65.625 24.2969 65.2344 23.6562 65.2344 22.5703C65.2344 21.8594 65.4062 21.2891 65.8438 20.9062C66.2812 20.5234 66.9922 20.3125 68.0781 20.3125C68.5156 20.3125 69.0234 20.3125 69.7422 20.375V19.9688C69.7422 19.4062 69.5625 19.0156 69.2734 18.7812C68.9844 18.5469 68.5938 18.4531 68.1562 18.4531C67.4609 18.4531 66.6406 18.7031 65.9844 19.0078L65.5547 17.4141C66.4062 17.0078 67.4922 16.7266 68.5156 16.7266C69.3203 16.7266 70.0703 16.8984 70.6328 17.3203C71.1875 17.7422 71.5391 18.4062 71.5391 19.3984V22.4141C71.5391 22.7969 71.6641 23.0625 71.8828 23.25C72.0938 23.4375 72.3906 23.5547 72.7422 23.625ZM69.7344 22.2109V21.7188C68.8828 21.7188 68.2188 21.7031 67.7656 21.8125C67.3125 21.9219 67.0625 22.1562 67.0625 22.6328C67.0625 23.2969 67.5391 23.6641 68.2031 23.6641C68.4297 23.6641 68.8125 23.6172 69.1406 23.4141C69.4688 23.2109 69.7344 22.8438 69.7344 22.2109ZM75.3906 16.8906L75.5703 17.5234C76.3203 17.0234 77.25 16.7344 78.1562 16.7344C78.9297 16.7344 79.6719 16.9453 80.2109 17.4141C80.75 17.8828 81.1016 18.5938 81.1016 19.6172V25H79.2734V20.1562C79.2734 19.5547 79.0547 19.1328 78.7188 18.8672C78.3828 18.6016 77.9297 18.4922 77.4375 18.4922C76.8125 18.4922 76.1719 18.6797 75.6719 18.9922V25H73.8438V16.8906H75.3906ZM88.4766 25L88.1484 24.3906C87.5234 24.8594 86.8672 25.1562 85.9688 25.1562C84.8047 25.1562 83.9375 24.6875 83.3672 23.9688C82.7969 23.25 82.5156 22.2812 82.5156 21.2812C82.5156 19.75 82.9766 18.6094 83.7422 17.8516C84.5078 17.1016 85.5859 16.7344 86.8359 16.7344C87.2031 16.7344 87.6016 16.7578 88.0312 16.8125V13.8438L89.5781 13.6875H89.8594V25H88.4766ZM88.0312 22.8984V18.6094C87.5703 18.4922 87.1016 18.4375 86.7344 18.4375C86.0391 18.4375 85.4531 18.6406 85.0469 19.0625C84.6406 19.4844 84.4062 20.1094 84.4062 20.9531C84.4062 21.5703 84.5781 22.1719 84.9062 22.6328C85.2344 23.0938 85.7188 23.3984 86.3672 23.3984C86.9219 23.3984 87.5391 23.2031 88.0312 22.8984ZM97.8281 22.8984V24.6719C97.1094 25.0234 96.2188 25.1562 95.5234 25.1562C94.3984 25.1562 93.3594 24.8047 92.5938 24.1094C91.8281 23.4141 91.3438 22.3516 91.3438 20.9453C91.3438 19.5781 91.7969 18.5312 92.4844 17.8125C93.1641 17.1016 94.0781 16.7344 94.9922 16.7344C95.25 16.7344 95.7109 16.7656 96.1875 16.9297C96.6641 17.0938 97.1875 17.4062 97.5781 17.9453C97.9688 18.4844 98.2422 19.2812 98.2422 20.4062V21.625H93.3203C93.4688 22.2812 93.8047 22.7266 94.2422 23.0078C94.6719 23.2891 95.1953 23.4062 95.7188 23.4062C96.4062 23.4062 97.1328 23.2109 97.7578 22.875L97.8281 22.8984ZM93.2969 20.1797H96.5703C96.5312 19.5859 96.3203 19.1641 96.0391 18.8828C95.7578 18.6094 95.3984 18.4922 95.0469 18.4922C94.6719 18.4922 94.2891 18.6172 93.9766 18.8906C93.6562 19.1719 93.4141 19.5938 93.2969 20.1797ZM105.102 17.0547L104.523 18.9062C104.062 18.625 103.609 18.5 103.148 18.5C102.555 18.5 102.008 18.7188 101.516 19.0938V25H99.6875V16.8906H101.234L101.422 17.5547C101.984 17.0781 102.672 16.7344 103.484 16.7344C103.703 16.7344 104.008 16.75 104.305 16.8047C104.602 16.8594 104.891 16.9375 105.102 17.0547ZM112.062 22.8984V24.6719C111.344 25.0234 110.453 25.1562 109.758 25.1562C108.633 25.1562 107.594 24.8047 106.828 24.1094C106.062 23.4141 105.578 22.3516 105.578 20.9453C105.578 19.5781 106.031 18.5312 106.719 17.8125C107.398 17.1016 108.312 16.7344 109.227 16.7344C109.484 16.7344 109.945 16.7656 110.422 16.9297C110.898 17.0938 111.422 17.4062 111.812 17.9453C112.203 18.4844 112.477 19.2812 112.477 20.4062V21.625H107.555C107.703 22.2812 108.039 22.7266 108.477 23.0078C108.906 23.2891 109.43 23.4062 109.953 23.4062C110.641 23.4062 111.367 23.2109 111.992 22.875L112.062 22.8984ZM107.531 20.1797H110.805C110.766 19.5859 110.555 19.1641 110.273 18.8828C109.992 18.6094 109.633 18.4922 109.281 18.4922C108.906 18.4922 108.523 18.6172 108.211 18.8906C107.891 19.1719 107.648 19.5938 107.531 20.1797ZM115.469 16.8906L115.648 17.5234C116.398 17.0234 117.328 16.7344 118.234 16.7344C119.008 16.7344 119.75 16.9453 120.289 17.4141C120.828 17.8828 121.18 18.5938 121.18 19.6172V25H119.352V20.1562C119.352 19.5547 119.133 19.1328 118.797 18.8672C118.461 18.6016 118.008 18.4922 117.516 18.4922C116.891 18.4922 116.25 18.6797 115.75 18.9922V25H113.922V16.8906H115.469Z" fill="#474B50"/>
<g clip-path="url(#clip0)">
<path d="M25 0L38 40" stroke="#474B50" stroke-linecap="square"/>
</g>
<path d="M20.1339 20.6667C19.3339 20.0001 18.9339 20.6667 18.3339 20.6667C17.9339 20.6667 17.4339 19.7778 17.1339 20.0001C16.4339 20.3334 17.4339 21.6667 17.8339 22.0001C18.2339 22.2223 18.6339 22.4445 18.7339 22.5556C19.2339 22.7778 19.4339 23.2223 19.5339 23.8889C19.5339 24.0001 19.5339 24.3334 19.5339 24.5556C19.3339 25.6667 17.5339 26.6667 16.4339 25.8889C15.9339 25.5556 15.5339 25.0001 15.3339 24.2223C15.0339 22.7778 14.1339 21.6667 13.7339 20.2223C13.6339 19.2223 13.5339 18.3334 13.3339 17.4445C13.1339 16.4445 12.8339 15.5556 12.7339 14.7778C12.5339 14.0001 12.2339 12.7778 11.9339 12.1112C10.9339 9.22228 10.5339 9.4445 10.5339 9.4445C10.5339 9.4445 10.9339 10.2223 12.2339 17.2223C12.3339 17.5556 12.7339 20.5556 13.1339 21.5556C13.2339 21.8889 13.4339 22.6667 13.6339 23.0001C14.0339 24.0001 15.1339 25.5556 15.2339 26.8889C15.2339 27.6667 15.3339 28.3334 15.3339 28.8889C15.3339 29.1112 15.4339 29.7778 15.5339 30.1112C15.8339 30.8889 17.9339 33.6667 20.2339 33.6667V31.6667C17.9339 31.6667 15.8339 30.2223 15.7339 30.1112C15.7339 30.0001 15.8339 29.1112 16.0339 28.6667C16.3339 27.8889 16.9339 27.1112 17.8339 27.0001C18.9339 26.8889 19.6339 27.2223 20.1339 27.2223V20.6667Z" fill="#474B50"/>
<path d="M10.3339 13.3334C10.2339 14.8889 8.13388 16.8889 7.43388 18.2223C7.13388 18.8889 6.73388 20 6.63388 20.6667C6.33388 22.5556 6.63388 23.6667 7.03388 24.6667C7.73388 26.5556 6.93388 27.2223 7.53388 26.8889C8.23388 26.2223 8.13388 24.7778 8.03388 23.8889C8.03388 23.1111 7.93388 22.3334 8.03388 21.4445C8.23388 19.7778 9.13388 18.1112 9.83388 16.8889C10.8339 15.4445 10.4339 14 10.3339 13.3334Z" fill="#474B50"/>
<path d="M10.7339 17.6666C10.7339 17.6666 10.9339 18.8888 10.0339 22C7.53388 30.1111 12.3339 30.8888 13.6339 32.7777C13.6339 32.7777 14.1339 32 12.0339 29.3333C11.2339 28.3333 10.5339 26.2222 11.1339 23.2222C12.0339 18.7777 10.7339 17.6666 10.7339 17.6666Z" fill="#474B50"/>
<path d="M5.93389 12.3333C5.83389 11.8889 5.83389 11.4444 5.83389 11C5.93389 9.11111 7.53389 8.33333 7.93389 8.11111C7.93389 8.11111 8.63389 7.55556 8.73389 7C8.73389 7 9.43389 9 7.83389 10.1111C6.93389 10.7778 6.33389 11.4444 5.93389 12.3333Z" fill="#474B50"/>
<path d="M9.93388 10.4445C10.0339 10.6667 10.6339 11.6667 8.03388 14.1111C5.33388 16.5556 6.13388 18.3334 6.13388 18.3334C6.13388 18.3334 3.33388 16.5556 6.53388 13.5556C9.73388 10.5556 9.13388 9.88892 9.13388 9.88892C9.13388 9.88892 9.63388 9.88892 9.93388 10.4445Z" fill="#474B50"/>
<path fill-rule="evenodd" clip-rule="evenodd" d="M13.9538 12.1559C13.7348 11.7666 13.5537 11.4445 13.3339 11.4445C17.6339 10.3334 17.5339 13.8889 17.2339 14.8889C16.8339 15 16.5339 14.3334 16.9339 14.1112C16.795 13.7255 16.367 13.6611 15.8505 13.5834C15.6231 13.5492 15.3785 13.5124 15.1339 13.4445C14.5735 13.2577 14.2329 12.6522 13.9538 12.1559ZM14.7964 12.0556C14.7589 12.0556 14.7339 12.0556 14.7339 12.1112C14.4339 13.2223 16.5339 13.6667 16.3339 12.1112C16.1966 12.1112 16.024 12.1766 15.8565 12.2401C15.5359 12.3616 15.2339 12.4761 15.2339 12.1112C15.2339 11.9016 15.4316 11.9116 15.6032 11.9203C15.7045 11.9255 15.7968 11.9302 15.8339 11.8889C15.8339 11.8889 15.9339 11.5556 15.8339 11.5556H15.3339C15.1944 11.6331 15.1036 11.7646 15.0275 11.8747C14.9944 11.9226 14.9642 11.9664 14.9339 12C14.8839 12.0556 14.8339 12.0556 14.7964 12.0556Z" fill="#474B50"/>
<defs>
<clipPath id="clip0">
<rect width="15" height="40" fill="white" transform="translate(24)"/>
</clipPath>
</defs>
</svg>
